# xmcd CD database file
#
# Track frame offsets:
#	150
#	27400
#	52950
#	101010
#	128412
#	164410
#	182820
#	208550
#	230952
#	260365
#	274850
#	287392
#
# Disc length: 4242 seconds
#
# Revision: 0
# Processed by: cddbd v1.4PL0 Copyright (c) Steve Scherf et al.
# Submitted via: CDex 1.50beta9
#
DISCID=a910900c
DTITLE=Various Artist - Jazz Sax Best
DYEAR=1900
DGENRE=Jazz
TTITLE0=Sweet Love of Mine/ Jackie Mclean
TTITLE1=Remember/ Hank Mobley
TTITLE2=Blue Train/ John Coltrane
TTITLE3=What is This Thing Called Love/ Art Pepper
TTITLE4=Blue Bossa/ Joe Henderson
TTITLE5=Dancing In the Dark/ Cannonball Adderley
TTITLE6=Why Don't I/ Sonny Rollins
TTITLE7=Polka Dots and Moonbeams/ Lou Donaldson
TTITLE8=Cheese Cake/ Dexter Gordon
TTITLE9=Loie/ Ike Quebec
TTITLE10=Yesterdays/ Stan Getz
TTITLE11=Adam's Apple/ Wayne Shorter
EXTD=
EXTT0=
EXTT1=
EXTT2=
EXTT3=
EXTT4=
EXTT5=
EXTT6=
EXTT7=
EXTT8=
EXTT9=
EXTT10=
EXTT11=
PLAYORDER=
